<svg version="1.1" xmlns="http://www.w3.org/2000/svg" xmlns:xlink="http://www.w3.org/1999/xlink" width="123" height="122" viewBox="0,0,123,122"><defs><linearGradient x1="208.5" y1="180" x2="271.5" y2="180" gradientUnits="userSpaceOnUse" id="color-1"><stop offset="0" stop-color="#008cc4"/><stop offset="1" stop-color="#008080"/></linearGradient></defs><g transform="translate(-178.5,-119)"><path d="M271.5,180c0,19.32997 -14.10303,35 -31.5,35c-17.39697,0 -31.5,-15.67003 -31.5,-35c0,-19.32997 14.10303,-35 31.5,-35c17.39697,0 31.5,15.67003 31.5,35z" fill="none" stroke="url(#color-1)" stroke-width="17" stroke-linecap="butt"/><path d="M231.375,180.5h17.0625" fill="none" stroke="#e2e2e2" stroke-width="5" stroke-linecap="round"/><path d="M237,193.66666c0,-1.38071 1.11929,-2.5 2.5,-2.5c1.38071,0 2.5,1.11929 2.5,2.5c0,1.38071 -1.11929,2.5 -2.5,2.5c-1.38071,0 -2.5,-1.11929 -2.5,-2.5z" fill="#e2e2e2" stroke="none" stroke-width="0.5" stroke-linecap="butt"/><path d="M237,167.66666c0,-1.38071 1.11929,-2.5 2.5,-2.5c1.38071,0 2.5,1.11929 2.5,2.5c0,1.38071 -1.11929,2.5 -2.5,2.5c-1.38071,0 -2.5,-1.11929 -2.5,-2.5z" fill="#e2e2e2" stroke="none" stroke-width="0.5" stroke-linecap="butt"/></g></svg>